# xmcd CD database file
#
# Track frame offsets:
#	150
#	13015
#	24547
#
# Disc length: 452 seconds
#
# Revision: 1
# Processed by: cddbd v1.4PL0 Copyright (c) Steve Scherf et al.
# Submitted via: CDex 1.50beta9
#
DISCID=1901c203
DTITLE=Toksick - Life is shit
DYEAR=2000
DGENRE=Hardcore
TTITLE0=2 sick inside
TTITLE1=what if i
TTITLE2=white
EXTD=YEAR: 2000
EXTT0=
EXTT1=
EXTT2=
PLAYORDER=
